# xmcd
#
# Track frame offsets: 
#        150
#        15236
#        40023
#        63202
#        84932
#        108344
#        130445
#        143695
#        178823
#        204166
#        224392
#        249122
#        264852
#        284056
#
# Disc length: 4053 seconds
#
# Revision: 0
# Processed by: cddbd v1.5.2PL0 Copyright (c) Steve Scherf et al.
# Submitted via: ExactAudioCopyFreeDBPlugin 1.0
#
DISCID=b90fd30e
DTITLE=Likho Duo - Blues And The World Beyond
DYEAR=2017
DGENRE=Blues
TTITLE0=Derby Street Blues
TTITLE1=Spoonful
TTITLE2=The Downtowner
TTITLE3=I Cant Be Satisfied
TTITLE4=Romance Among Thieves
TTITLE5=Id Say
TTITLE6=Black Dog
TTITLE7=You Shook Me
TTITLE8=Hide Away
TTITLE9=Almere
TTITLE10=Georgia
TTITLE11=Good Morning Little Schoolgirl
TTITLE12=Tu Vuo Fa Lamericano
TTITLE13=Waltz For Katja
EXTD=
EXTT0=
EXTT1=
EXTT2=
EXTT3=
EXTT4=
EXTT5=
EXTT6=
EXTT7=
EXTT8=
EXTT9=
EXTT10=
EXTT11=
EXTT12=
EXTT13=
PLAYORDER=
